<mxfile host="app.diagrams.net" agent="Mozilla/5.0 (Windows NT 10.0; Win64; x64) AppleWebKit/537.36 (KHTML, like Gecko) Chrome/135.0.0.0 Safari/537.36" version="26.1.2" pages="3">
  <diagram id="C5RBs43oDa-KdzZeNtuy" name="Page-1">
    <mxGraphModel dx="1431" dy="619" grid="1" gridSize="10" guides="1" tooltips="1" connect="1" arrows="1" fold="1" page="1" pageScale="1" pageWidth="827" pageHeight="1169" math="0" shadow="0">
      <root>
        <mxCell id="WIyWlLk6GJQsqaUBKTNV-0" />
        <mxCell id="WIyWlLk6GJQsqaUBKTNV-1" parent="WIyWlLk6GJQsqaUBKTNV-0" />
        <mxCell id="WIyWlLk6GJQsqaUBKTNV-4" value="" style="rounded=0;html=1;jettySize=auto;orthogonalLoop=1;fontSize=11;endArrow=block;endFill=0;endSize=8;strokeWidth=1;shadow=0;labelBackgroundColor=none;edgeStyle=orthogonalEdgeStyle;" parent="WIyWlLk6GJQsqaUBKTNV-1" source="WIyWlLk6GJQsqaUBKTNV-11" target="WIyWlLk6GJQsqaUBKTNV-6" edge="1">
          <mxGeometry y="20" relative="1" as="geometry">
            <mxPoint as="offset" />
            <mxPoint x="180" y="440" as="targetPoint" />
          </mxGeometry>
        </mxCell>
        <mxCell id="WIyWlLk6GJQsqaUBKTNV-5" value="No" style="edgeStyle=orthogonalEdgeStyle;rounded=0;html=1;jettySize=auto;orthogonalLoop=1;fontSize=11;endArrow=block;endFill=0;endSize=8;strokeWidth=1;shadow=0;labelBackgroundColor=none;" parent="WIyWlLk6GJQsqaUBKTNV-1" source="WIyWlLk6GJQsqaUBKTNV-6" target="WIyWlLk6GJQsqaUBKTNV-7" edge="1">
          <mxGeometry y="10" relative="1" as="geometry">
            <mxPoint as="offset" />
          </mxGeometry>
        </mxCell>
        <mxCell id="WIyWlLk6GJQsqaUBKTNV-6" value="Đã đăng nhập?" style="rhombus;whiteSpace=wrap;html=1;shadow=0;fontFamily=Helvetica;fontSize=12;align=center;strokeWidth=1;spacing=6;spacingTop=-4;" parent="WIyWlLk6GJQsqaUBKTNV-1" vertex="1">
          <mxGeometry x="325" y="300" width="110" height="90" as="geometry" />
        </mxCell>
        <mxCell id="WIyWlLk6GJQsqaUBKTNV-7" value="Đăng nhập" style="rounded=1;whiteSpace=wrap;html=1;fontSize=12;glass=0;strokeWidth=1;shadow=0;" parent="WIyWlLk6GJQsqaUBKTNV-1" vertex="1">
          <mxGeometry x="490" y="325" width="120" height="40" as="geometry" />
        </mxCell>
        <mxCell id="WIyWlLk6GJQsqaUBKTNV-8" value="" style="rounded=0;html=1;jettySize=auto;orthogonalLoop=1;fontSize=11;endArrow=block;endFill=0;endSize=8;strokeWidth=1;shadow=0;labelBackgroundColor=none;edgeStyle=orthogonalEdgeStyle;" parent="WIyWlLk6GJQsqaUBKTNV-1" source="mKgA36MU-2-wghVCW6sr-0" target="WIyWlLk6GJQsqaUBKTNV-11" edge="1">
          <mxGeometry x="0.3333" y="20" relative="1" as="geometry">
            <mxPoint as="offset" />
          </mxGeometry>
        </mxCell>
        <mxCell id="WIyWlLk6GJQsqaUBKTNV-9" value="" style="edgeStyle=orthogonalEdgeStyle;rounded=0;html=1;jettySize=auto;orthogonalLoop=1;fontSize=11;endArrow=block;endFill=0;endSize=8;strokeWidth=1;shadow=0;labelBackgroundColor=none;entryX=0.5;entryY=0;entryDx=0;entryDy=0;" parent="WIyWlLk6GJQsqaUBKTNV-1" source="WIyWlLk6GJQsqaUBKTNV-12" target="mKgA36MU-2-wghVCW6sr-0" edge="1">
          <mxGeometry y="10" relative="1" as="geometry">
            <mxPoint as="offset" />
            <mxPoint x="302.9968965517242" y="374.9855172413793" as="sourcePoint" />
            <mxPoint x="413.0744827586207" y="285.02" as="targetPoint" />
          </mxGeometry>
        </mxCell>
        <mxCell id="WIyWlLk6GJQsqaUBKTNV-10" value="Thông tin hợp lệ?" style="rhombus;whiteSpace=wrap;html=1;shadow=0;fontFamily=Helvetica;fontSize=12;align=center;strokeWidth=1;spacing=6;spacingTop=-4;" parent="WIyWlLk6GJQsqaUBKTNV-1" vertex="1">
          <mxGeometry x="325" y="420" width="110" height="100" as="geometry" />
        </mxCell>
        <mxCell id="WIyWlLk6GJQsqaUBKTNV-11" value="Nhấn lưu" style="rounded=1;whiteSpace=wrap;html=1;fontSize=12;glass=0;strokeWidth=1;shadow=0;" parent="WIyWlLk6GJQsqaUBKTNV-1" vertex="1">
          <mxGeometry x="320" y="230" width="120" height="40" as="geometry" />
        </mxCell>
        <mxCell id="WIyWlLk6GJQsqaUBKTNV-12" value="Nhấn nút &quot;Thêm&quot;" style="rounded=1;whiteSpace=wrap;html=1;fontSize=12;glass=0;strokeWidth=1;shadow=0;" parent="WIyWlLk6GJQsqaUBKTNV-1" vertex="1">
          <mxGeometry x="320" y="90" width="120" height="40" as="geometry" />
        </mxCell>
        <mxCell id="mKgA36MU-2-wghVCW6sr-0" value="Nhập thông tin" style="rounded=1;whiteSpace=wrap;html=1;fontSize=12;glass=0;strokeWidth=1;shadow=0;" vertex="1" parent="WIyWlLk6GJQsqaUBKTNV-1">
          <mxGeometry x="320" y="160" width="120" height="40" as="geometry" />
        </mxCell>
        <mxCell id="mKgA36MU-2-wghVCW6sr-1" value="" style="edgeStyle=orthogonalEdgeStyle;rounded=0;html=1;jettySize=auto;orthogonalLoop=1;fontSize=11;endArrow=block;endFill=0;endSize=8;strokeWidth=1;shadow=0;labelBackgroundColor=none;" edge="1" parent="WIyWlLk6GJQsqaUBKTNV-1" source="WIyWlLk6GJQsqaUBKTNV-6" target="WIyWlLk6GJQsqaUBKTNV-10">
          <mxGeometry x="0.658" y="-10" relative="1" as="geometry">
            <mxPoint as="offset" />
            <mxPoint x="280" y="220" as="sourcePoint" />
            <mxPoint x="330" y="170" as="targetPoint" />
          </mxGeometry>
        </mxCell>
        <mxCell id="mKgA36MU-2-wghVCW6sr-4" value="Yes" style="edgeLabel;html=1;align=center;verticalAlign=middle;resizable=0;points=[];" vertex="1" connectable="0" parent="mKgA36MU-2-wghVCW6sr-1">
          <mxGeometry x="-0.2605" y="1" relative="1" as="geometry">
            <mxPoint x="14" as="offset" />
          </mxGeometry>
        </mxCell>
        <mxCell id="mKgA36MU-2-wghVCW6sr-5" value="No" style="edgeStyle=orthogonalEdgeStyle;rounded=0;html=1;jettySize=auto;orthogonalLoop=1;fontSize=11;endArrow=block;endFill=0;endSize=8;strokeWidth=1;shadow=0;labelBackgroundColor=none;" edge="1" parent="WIyWlLk6GJQsqaUBKTNV-1" target="mKgA36MU-2-wghVCW6sr-6" source="WIyWlLk6GJQsqaUBKTNV-10">
          <mxGeometry y="10" relative="1" as="geometry">
            <mxPoint as="offset" />
            <mxPoint x="575" y="440" as="sourcePoint" />
          </mxGeometry>
        </mxCell>
        <mxCell id="mKgA36MU-2-wghVCW6sr-6" value="Thông báo thêm thất bại" style="rounded=1;whiteSpace=wrap;html=1;fontSize=12;glass=0;strokeWidth=1;shadow=0;" vertex="1" parent="WIyWlLk6GJQsqaUBKTNV-1">
          <mxGeometry x="480" y="450" width="140" height="40" as="geometry" />
        </mxCell>
        <mxCell id="mKgA36MU-2-wghVCW6sr-7" value="Trở về danh sách sản phẩm" style="rounded=1;whiteSpace=wrap;html=1;fontSize=12;glass=0;strokeWidth=1;shadow=0;" vertex="1" parent="WIyWlLk6GJQsqaUBKTNV-1">
          <mxGeometry x="295" y="550" width="170" height="40" as="geometry" />
        </mxCell>
        <mxCell id="mKgA36MU-2-wghVCW6sr-8" value="" style="edgeStyle=orthogonalEdgeStyle;rounded=0;html=1;jettySize=auto;orthogonalLoop=1;fontSize=11;endArrow=block;endFill=0;endSize=8;strokeWidth=1;shadow=0;labelBackgroundColor=none;entryX=0.5;entryY=0;entryDx=0;entryDy=0;" edge="1" parent="WIyWlLk6GJQsqaUBKTNV-1" target="mKgA36MU-2-wghVCW6sr-7" source="WIyWlLk6GJQsqaUBKTNV-10">
          <mxGeometry x="0.658" y="-10" relative="1" as="geometry">
            <mxPoint as="offset" />
            <mxPoint x="520" y="485" as="sourcePoint" />
            <mxPoint x="470" y="445" as="targetPoint" />
          </mxGeometry>
        </mxCell>
        <mxCell id="mKgA36MU-2-wghVCW6sr-9" value="Yes" style="edgeLabel;html=1;align=center;verticalAlign=middle;resizable=0;points=[];" vertex="1" connectable="0" parent="mKgA36MU-2-wghVCW6sr-8">
          <mxGeometry x="-0.2605" y="1" relative="1" as="geometry">
            <mxPoint x="14" as="offset" />
          </mxGeometry>
        </mxCell>
        <mxCell id="mKgA36MU-2-wghVCW6sr-10" value="" style="edgeStyle=orthogonalEdgeStyle;rounded=0;html=1;jettySize=auto;orthogonalLoop=1;fontSize=11;endArrow=block;endFill=0;endSize=8;strokeWidth=1;shadow=0;labelBackgroundColor=none;" edge="1" parent="WIyWlLk6GJQsqaUBKTNV-1" target="mKgA36MU-2-wghVCW6sr-11" source="mKgA36MU-2-wghVCW6sr-6">
          <mxGeometry y="10" relative="1" as="geometry">
            <mxPoint as="offset" />
            <mxPoint x="710" y="450" as="sourcePoint" />
            <mxPoint x="743.0744827586207" y="455.02" as="targetPoint" />
          </mxGeometry>
        </mxCell>
        <mxCell id="mKgA36MU-2-wghVCW6sr-11" value="Kết thúc" style="rounded=1;whiteSpace=wrap;html=1;fontSize=12;glass=0;strokeWidth=1;shadow=0;" vertex="1" parent="WIyWlLk6GJQsqaUBKTNV-1">
          <mxGeometry x="650" y="450" width="120" height="40" as="geometry" />
        </mxCell>
        <mxCell id="mKgA36MU-2-wghVCW6sr-12" value="" style="edgeStyle=orthogonalEdgeStyle;rounded=0;html=1;jettySize=auto;orthogonalLoop=1;fontSize=11;endArrow=block;endFill=0;endSize=8;strokeWidth=1;shadow=0;labelBackgroundColor=none;" edge="1" parent="WIyWlLk6GJQsqaUBKTNV-1" target="mKgA36MU-2-wghVCW6sr-13" source="mKgA36MU-2-wghVCW6sr-7">
          <mxGeometry y="10" relative="1" as="geometry">
            <mxPoint as="offset" />
            <mxPoint x="290" y="670" as="sourcePoint" />
            <mxPoint x="413.07448275862066" y="625.02" as="targetPoint" />
          </mxGeometry>
        </mxCell>
        <mxCell id="mKgA36MU-2-wghVCW6sr-13" value="Kết thúc" style="rounded=1;whiteSpace=wrap;html=1;fontSize=12;glass=0;strokeWidth=1;shadow=0;" vertex="1" parent="WIyWlLk6GJQsqaUBKTNV-1">
          <mxGeometry x="320" y="620" width="120" height="40" as="geometry" />
        </mxCell>
        <mxCell id="QgLW85JgWAcnhmrb1_6Z-1" style="edgeStyle=orthogonalEdgeStyle;rounded=0;orthogonalLoop=1;jettySize=auto;html=1;" edge="1" parent="WIyWlLk6GJQsqaUBKTNV-1" source="QgLW85JgWAcnhmrb1_6Z-0" target="WIyWlLk6GJQsqaUBKTNV-12">
          <mxGeometry relative="1" as="geometry">
            <mxPoint x="380" y="70" as="targetPoint" />
          </mxGeometry>
        </mxCell>
        <mxCell id="QgLW85JgWAcnhmrb1_6Z-0" value="Start" style="ellipse;whiteSpace=wrap;html=1;" vertex="1" parent="WIyWlLk6GJQsqaUBKTNV-1">
          <mxGeometry x="330" y="20" width="100" height="40" as="geometry" />
        </mxCell>
      </root>
    </mxGraphModel>
  </diagram>
  <diagram id="i6YBbDKHQANyVdsfv1k3" name="Page-2">
    <mxGraphModel dx="1431" dy="619" grid="1" gridSize="10" guides="1" tooltips="1" connect="1" arrows="1" fold="1" page="1" pageScale="1" pageWidth="1100" pageHeight="1700" math="0" shadow="0">
      <root>
        <mxCell id="0" />
        <mxCell id="1" parent="0" />
        <mxCell id="aKS-Q65T1Iwz0XJiOf8x-4" value="No" style="edgeStyle=orthogonalEdgeStyle;rounded=0;html=1;jettySize=auto;orthogonalLoop=1;fontSize=11;endArrow=block;endFill=0;endSize=8;strokeWidth=1;shadow=0;labelBackgroundColor=none;" edge="1" parent="1" source="aKS-Q65T1Iwz0XJiOf8x-5" target="aKS-Q65T1Iwz0XJiOf8x-6">
          <mxGeometry y="10" relative="1" as="geometry">
            <mxPoint as="offset" />
          </mxGeometry>
        </mxCell>
        <mxCell id="aKS-Q65T1Iwz0XJiOf8x-5" value="Đã đăng nhập?" style="rhombus;whiteSpace=wrap;html=1;shadow=0;fontFamily=Helvetica;fontSize=12;align=center;strokeWidth=1;spacing=6;spacingTop=-4;" vertex="1" parent="1">
          <mxGeometry x="320" y="260" width="110" height="90" as="geometry" />
        </mxCell>
        <mxCell id="aKS-Q65T1Iwz0XJiOf8x-6" value="Đăng nhập" style="rounded=1;whiteSpace=wrap;html=1;fontSize=12;glass=0;strokeWidth=1;shadow=0;" vertex="1" parent="1">
          <mxGeometry x="480" y="285" width="120" height="40" as="geometry" />
        </mxCell>
        <mxCell id="aKS-Q65T1Iwz0XJiOf8x-8" value="" style="edgeStyle=orthogonalEdgeStyle;rounded=0;html=1;jettySize=auto;orthogonalLoop=1;fontSize=11;endArrow=block;endFill=0;endSize=8;strokeWidth=1;shadow=0;labelBackgroundColor=none;" edge="1" parent="1" source="aKS-Q65T1Iwz0XJiOf8x-11" target="aKS-Q65T1Iwz0XJiOf8x-5">
          <mxGeometry y="10" relative="1" as="geometry">
            <mxPoint as="offset" />
            <mxPoint x="302.9968965517242" y="374.9855172413793" as="sourcePoint" />
            <mxPoint x="375" y="260" as="targetPoint" />
          </mxGeometry>
        </mxCell>
        <mxCell id="aKS-Q65T1Iwz0XJiOf8x-9" value="Đã tồn tại trong giỏ hàng?" style="rhombus;whiteSpace=wrap;html=1;shadow=0;fontFamily=Helvetica;fontSize=12;align=center;strokeWidth=1;spacing=6;spacingTop=-4;" vertex="1" parent="1">
          <mxGeometry x="320" y="390" width="110" height="100" as="geometry" />
        </mxCell>
        <mxCell id="aKS-Q65T1Iwz0XJiOf8x-11" value="Nhấn nút &quot;Thêm vào giỏ hàng&quot;" style="rounded=1;whiteSpace=wrap;html=1;fontSize=12;glass=0;strokeWidth=1;shadow=0;" vertex="1" parent="1">
          <mxGeometry x="270" y="190" width="210" height="40" as="geometry" />
        </mxCell>
        <mxCell id="aKS-Q65T1Iwz0XJiOf8x-13" value="" style="edgeStyle=orthogonalEdgeStyle;rounded=0;html=1;jettySize=auto;orthogonalLoop=1;fontSize=11;endArrow=block;endFill=0;endSize=8;strokeWidth=1;shadow=0;labelBackgroundColor=none;" edge="1" parent="1" source="aKS-Q65T1Iwz0XJiOf8x-5" target="aKS-Q65T1Iwz0XJiOf8x-9">
          <mxGeometry x="0.658" y="-10" relative="1" as="geometry">
            <mxPoint as="offset" />
            <mxPoint x="280" y="220" as="sourcePoint" />
            <mxPoint x="490" y="420" as="targetPoint" />
          </mxGeometry>
        </mxCell>
        <mxCell id="aKS-Q65T1Iwz0XJiOf8x-14" value="Yes" style="edgeLabel;html=1;align=center;verticalAlign=middle;resizable=0;points=[];" vertex="1" connectable="0" parent="aKS-Q65T1Iwz0XJiOf8x-13">
          <mxGeometry x="-0.2605" y="1" relative="1" as="geometry">
            <mxPoint x="14" as="offset" />
          </mxGeometry>
        </mxCell>
        <mxCell id="aKS-Q65T1Iwz0XJiOf8x-15" value="No" style="edgeStyle=orthogonalEdgeStyle;rounded=0;html=1;jettySize=auto;orthogonalLoop=1;fontSize=11;endArrow=block;endFill=0;endSize=8;strokeWidth=1;shadow=0;labelBackgroundColor=none;" edge="1" parent="1" source="aKS-Q65T1Iwz0XJiOf8x-9" target="aKS-Q65T1Iwz0XJiOf8x-16">
          <mxGeometry y="10" relative="1" as="geometry">
            <mxPoint as="offset" />
            <mxPoint x="575" y="440" as="sourcePoint" />
          </mxGeometry>
        </mxCell>
        <mxCell id="aKS-Q65T1Iwz0XJiOf8x-16" value="Tăng số lượng" style="rounded=1;whiteSpace=wrap;html=1;fontSize=12;glass=0;strokeWidth=1;shadow=0;" vertex="1" parent="1">
          <mxGeometry x="470" y="420" width="140" height="40" as="geometry" />
        </mxCell>
        <mxCell id="aKS-Q65T1Iwz0XJiOf8x-17" value="Thông báo thêm thành công" style="rounded=1;whiteSpace=wrap;html=1;fontSize=12;glass=0;strokeWidth=1;shadow=0;" vertex="1" parent="1">
          <mxGeometry x="290" y="520" width="170" height="40" as="geometry" />
        </mxCell>
        <mxCell id="aKS-Q65T1Iwz0XJiOf8x-18" value="" style="edgeStyle=orthogonalEdgeStyle;rounded=0;html=1;jettySize=auto;orthogonalLoop=1;fontSize=11;endArrow=block;endFill=0;endSize=8;strokeWidth=1;shadow=0;labelBackgroundColor=none;entryX=0.5;entryY=0;entryDx=0;entryDy=0;" edge="1" parent="1" source="aKS-Q65T1Iwz0XJiOf8x-9" target="aKS-Q65T1Iwz0XJiOf8x-17">
          <mxGeometry x="0.658" y="-10" relative="1" as="geometry">
            <mxPoint as="offset" />
            <mxPoint x="520" y="485" as="sourcePoint" />
            <mxPoint x="470" y="445" as="targetPoint" />
          </mxGeometry>
        </mxCell>
        <mxCell id="aKS-Q65T1Iwz0XJiOf8x-19" value="Yes" style="edgeLabel;html=1;align=center;verticalAlign=middle;resizable=0;points=[];" vertex="1" connectable="0" parent="aKS-Q65T1Iwz0XJiOf8x-18">
          <mxGeometry x="-0.2605" y="1" relative="1" as="geometry">
            <mxPoint x="14" as="offset" />
          </mxGeometry>
        </mxCell>
        <mxCell id="aKS-Q65T1Iwz0XJiOf8x-20" value="" style="edgeStyle=orthogonalEdgeStyle;rounded=0;html=1;jettySize=auto;orthogonalLoop=1;fontSize=11;endArrow=block;endFill=0;endSize=8;strokeWidth=1;shadow=0;labelBackgroundColor=none;" edge="1" parent="1" source="aKS-Q65T1Iwz0XJiOf8x-16" target="aKS-Q65T1Iwz0XJiOf8x-21">
          <mxGeometry y="10" relative="1" as="geometry">
            <mxPoint as="offset" />
            <mxPoint x="710" y="450" as="sourcePoint" />
            <mxPoint x="743.0744827586207" y="455.02" as="targetPoint" />
          </mxGeometry>
        </mxCell>
        <mxCell id="aKS-Q65T1Iwz0XJiOf8x-21" value="Thông báo thêm thành công" style="rounded=1;whiteSpace=wrap;html=1;fontSize=12;glass=0;strokeWidth=1;shadow=0;" vertex="1" parent="1">
          <mxGeometry x="650" y="420" width="120" height="40" as="geometry" />
        </mxCell>
        <mxCell id="aKS-Q65T1Iwz0XJiOf8x-22" value="" style="edgeStyle=orthogonalEdgeStyle;rounded=0;html=1;jettySize=auto;orthogonalLoop=1;fontSize=11;endArrow=block;endFill=0;endSize=8;strokeWidth=1;shadow=0;labelBackgroundColor=none;" edge="1" parent="1" source="aKS-Q65T1Iwz0XJiOf8x-17" target="aKS-Q65T1Iwz0XJiOf8x-23">
          <mxGeometry y="10" relative="1" as="geometry">
            <mxPoint as="offset" />
            <mxPoint x="290" y="670" as="sourcePoint" />
            <mxPoint x="413.07448275862066" y="625.02" as="targetPoint" />
          </mxGeometry>
        </mxCell>
        <mxCell id="aKS-Q65T1Iwz0XJiOf8x-23" value="Kết thúc" style="rounded=1;whiteSpace=wrap;html=1;fontSize=12;glass=0;strokeWidth=1;shadow=0;" vertex="1" parent="1">
          <mxGeometry x="315" y="590" width="120" height="40" as="geometry" />
        </mxCell>
        <mxCell id="aKS-Q65T1Iwz0XJiOf8x-24" value="" style="edgeStyle=orthogonalEdgeStyle;rounded=0;html=1;jettySize=auto;orthogonalLoop=1;fontSize=11;endArrow=block;endFill=0;endSize=8;strokeWidth=1;shadow=0;labelBackgroundColor=none;" edge="1" parent="1" target="aKS-Q65T1Iwz0XJiOf8x-11" source="aKS-Q65T1Iwz0XJiOf8x-25">
          <mxGeometry y="10" relative="1" as="geometry">
            <mxPoint as="offset" />
            <mxPoint x="920" y="230" as="sourcePoint" />
            <mxPoint x="830" y="190" as="targetPoint" />
          </mxGeometry>
        </mxCell>
        <mxCell id="aKS-Q65T1Iwz0XJiOf8x-25" value="Chọn sản phẩm" style="rounded=1;whiteSpace=wrap;html=1;fontSize=12;glass=0;strokeWidth=1;shadow=0;" vertex="1" parent="1">
          <mxGeometry x="315" y="120" width="120" height="40" as="geometry" />
        </mxCell>
        <mxCell id="jBS-ayEvR4aLor3FRzu9-5" style="edgeStyle=orthogonalEdgeStyle;rounded=0;orthogonalLoop=1;jettySize=auto;html=1;" edge="1" parent="1" source="jBS-ayEvR4aLor3FRzu9-4" target="aKS-Q65T1Iwz0XJiOf8x-25">
          <mxGeometry relative="1" as="geometry" />
        </mxCell>
        <mxCell id="jBS-ayEvR4aLor3FRzu9-4" value="Start" style="ellipse;whiteSpace=wrap;html=1;" vertex="1" parent="1">
          <mxGeometry x="325" y="50" width="100" height="40" as="geometry" />
        </mxCell>
        <mxCell id="jBS-ayEvR4aLor3FRzu9-6" value="" style="edgeStyle=orthogonalEdgeStyle;rounded=0;html=1;jettySize=auto;orthogonalLoop=1;fontSize=11;endArrow=block;endFill=0;endSize=8;strokeWidth=1;shadow=0;labelBackgroundColor=none;" edge="1" parent="1" target="jBS-ayEvR4aLor3FRzu9-7" source="aKS-Q65T1Iwz0XJiOf8x-21">
          <mxGeometry y="10" relative="1" as="geometry">
            <mxPoint as="offset" />
            <mxPoint x="820" y="380" as="sourcePoint" />
            <mxPoint x="953.0744827586207" y="395.02" as="targetPoint" />
          </mxGeometry>
        </mxCell>
        <mxCell id="jBS-ayEvR4aLor3FRzu9-7" value="Kết thúc" style="rounded=1;whiteSpace=wrap;html=1;fontSize=12;glass=0;strokeWidth=1;shadow=0;" vertex="1" parent="1">
          <mxGeometry x="810" y="420" width="120" height="40" as="geometry" />
        </mxCell>
      </root>
    </mxGraphModel>
  </diagram>
  <diagram id="7BLX6FUejxn8p1BU8HpY" name="Page-3">
    <mxGraphModel dx="1431" dy="619" grid="1" gridSize="10" guides="1" tooltips="1" connect="1" arrows="1" fold="1" page="1" pageScale="1" pageWidth="1100" pageHeight="1700" math="0" shadow="0">
      <root>
        <mxCell id="0" />
        <mxCell id="1" parent="0" />
        <mxCell id="wLlkmdTQSK7sAwv-sj6h-1" value="No" style="edgeStyle=orthogonalEdgeStyle;rounded=0;html=1;jettySize=auto;orthogonalLoop=1;fontSize=11;endArrow=block;endFill=0;endSize=8;strokeWidth=1;shadow=0;labelBackgroundColor=none;" edge="1" parent="1" source="wLlkmdTQSK7sAwv-sj6h-2" target="wLlkmdTQSK7sAwv-sj6h-3">
          <mxGeometry y="10" relative="1" as="geometry">
            <mxPoint as="offset" />
          </mxGeometry>
        </mxCell>
        <mxCell id="wLlkmdTQSK7sAwv-sj6h-2" value="Đã đăng nhập?" style="rhombus;whiteSpace=wrap;html=1;shadow=0;fontFamily=Helvetica;fontSize=12;align=center;strokeWidth=1;spacing=6;spacingTop=-4;" vertex="1" parent="1">
          <mxGeometry x="350" y="160" width="110" height="90" as="geometry" />
        </mxCell>
        <mxCell id="wLlkmdTQSK7sAwv-sj6h-3" value="Đăng nhập" style="rounded=1;whiteSpace=wrap;html=1;fontSize=12;glass=0;strokeWidth=1;shadow=0;" vertex="1" parent="1">
          <mxGeometry x="510" y="185" width="120" height="40" as="geometry" />
        </mxCell>
        <mxCell id="wLlkmdTQSK7sAwv-sj6h-4" value="" style="edgeStyle=orthogonalEdgeStyle;rounded=0;html=1;jettySize=auto;orthogonalLoop=1;fontSize=11;endArrow=block;endFill=0;endSize=8;strokeWidth=1;shadow=0;labelBackgroundColor=none;" edge="1" parent="1" source="wLlkmdTQSK7sAwv-sj6h-6" target="wLlkmdTQSK7sAwv-sj6h-2">
          <mxGeometry y="10" relative="1" as="geometry">
            <mxPoint as="offset" />
            <mxPoint x="332.9968965517242" y="354.9855172413793" as="sourcePoint" />
            <mxPoint x="405" y="240" as="targetPoint" />
          </mxGeometry>
        </mxCell>
        <mxCell id="wLlkmdTQSK7sAwv-sj6h-5" value="Thanh toán thành công?" style="rhombus;whiteSpace=wrap;html=1;shadow=0;fontFamily=Helvetica;fontSize=12;align=center;strokeWidth=1;spacing=6;spacingTop=-4;" vertex="1" parent="1">
          <mxGeometry x="350" y="300" width="110" height="100" as="geometry" />
        </mxCell>
        <mxCell id="wLlkmdTQSK7sAwv-sj6h-6" value="Nhấn nút &quot;Đặt hàng&quot;" style="rounded=1;whiteSpace=wrap;html=1;fontSize=12;glass=0;strokeWidth=1;shadow=0;" vertex="1" parent="1">
          <mxGeometry x="300" y="90" width="210" height="40" as="geometry" />
        </mxCell>
        <mxCell id="wLlkmdTQSK7sAwv-sj6h-7" value="" style="edgeStyle=orthogonalEdgeStyle;rounded=0;html=1;jettySize=auto;orthogonalLoop=1;fontSize=11;endArrow=block;endFill=0;endSize=8;strokeWidth=1;shadow=0;labelBackgroundColor=none;" edge="1" parent="1" source="wLlkmdTQSK7sAwv-sj6h-2" target="wLlkmdTQSK7sAwv-sj6h-5">
          <mxGeometry x="0.658" y="-10" relative="1" as="geometry">
            <mxPoint as="offset" />
            <mxPoint x="310" y="200" as="sourcePoint" />
            <mxPoint x="520" y="400" as="targetPoint" />
          </mxGeometry>
        </mxCell>
        <mxCell id="wLlkmdTQSK7sAwv-sj6h-8" value="Yes" style="edgeLabel;html=1;align=center;verticalAlign=middle;resizable=0;points=[];" vertex="1" connectable="0" parent="wLlkmdTQSK7sAwv-sj6h-7">
          <mxGeometry x="-0.2605" y="1" relative="1" as="geometry">
            <mxPoint x="14" as="offset" />
          </mxGeometry>
        </mxCell>
        <mxCell id="wLlkmdTQSK7sAwv-sj6h-9" value="No" style="edgeStyle=orthogonalEdgeStyle;rounded=0;html=1;jettySize=auto;orthogonalLoop=1;fontSize=11;endArrow=block;endFill=0;endSize=8;strokeWidth=1;shadow=0;labelBackgroundColor=none;" edge="1" parent="1" source="wLlkmdTQSK7sAwv-sj6h-5" target="wLlkmdTQSK7sAwv-sj6h-15">
          <mxGeometry y="10" relative="1" as="geometry">
            <mxPoint as="offset" />
            <mxPoint x="605" y="420" as="sourcePoint" />
            <mxPoint x="500" y="350" as="targetPoint" />
          </mxGeometry>
        </mxCell>
        <mxCell id="wLlkmdTQSK7sAwv-sj6h-11" value="Thông báo đặt hàng thành công" style="rounded=1;whiteSpace=wrap;html=1;fontSize=12;glass=0;strokeWidth=1;shadow=0;" vertex="1" parent="1">
          <mxGeometry x="335" y="450" width="140" height="40" as="geometry" />
        </mxCell>
        <mxCell id="wLlkmdTQSK7sAwv-sj6h-12" value="" style="edgeStyle=orthogonalEdgeStyle;rounded=0;html=1;jettySize=auto;orthogonalLoop=1;fontSize=11;endArrow=block;endFill=0;endSize=8;strokeWidth=1;shadow=0;labelBackgroundColor=none;entryX=0.5;entryY=0;entryDx=0;entryDy=0;" edge="1" parent="1" source="wLlkmdTQSK7sAwv-sj6h-5" target="wLlkmdTQSK7sAwv-sj6h-11">
          <mxGeometry x="0.658" y="-10" relative="1" as="geometry">
            <mxPoint as="offset" />
            <mxPoint x="550" y="465" as="sourcePoint" />
            <mxPoint x="500" y="425" as="targetPoint" />
          </mxGeometry>
        </mxCell>
        <mxCell id="wLlkmdTQSK7sAwv-sj6h-13" value="Yes" style="edgeLabel;html=1;align=center;verticalAlign=middle;resizable=0;points=[];" vertex="1" connectable="0" parent="wLlkmdTQSK7sAwv-sj6h-12">
          <mxGeometry x="-0.2605" y="1" relative="1" as="geometry">
            <mxPoint x="14" as="offset" />
          </mxGeometry>
        </mxCell>
        <mxCell id="wLlkmdTQSK7sAwv-sj6h-15" value="Thông báo thanh toán thất bại" style="rounded=1;whiteSpace=wrap;html=1;fontSize=12;glass=0;strokeWidth=1;shadow=0;" vertex="1" parent="1">
          <mxGeometry x="510" y="330" width="120" height="40" as="geometry" />
        </mxCell>
        <mxCell id="wLlkmdTQSK7sAwv-sj6h-16" value="" style="edgeStyle=orthogonalEdgeStyle;rounded=0;html=1;jettySize=auto;orthogonalLoop=1;fontSize=11;endArrow=block;endFill=0;endSize=8;strokeWidth=1;shadow=0;labelBackgroundColor=none;" edge="1" parent="1" source="wLlkmdTQSK7sAwv-sj6h-11" target="wLlkmdTQSK7sAwv-sj6h-17">
          <mxGeometry y="10" relative="1" as="geometry">
            <mxPoint as="offset" />
            <mxPoint x="320" y="650" as="sourcePoint" />
            <mxPoint x="443.07448275862066" y="605.02" as="targetPoint" />
          </mxGeometry>
        </mxCell>
        <mxCell id="wLlkmdTQSK7sAwv-sj6h-17" value="Kết thúc" style="rounded=1;whiteSpace=wrap;html=1;fontSize=12;glass=0;strokeWidth=1;shadow=0;" vertex="1" parent="1">
          <mxGeometry x="345" y="540" width="120" height="40" as="geometry" />
        </mxCell>
        <mxCell id="wLlkmdTQSK7sAwv-sj6h-20" style="edgeStyle=orthogonalEdgeStyle;rounded=0;orthogonalLoop=1;jettySize=auto;html=1;" edge="1" parent="1" source="wLlkmdTQSK7sAwv-sj6h-21" target="wLlkmdTQSK7sAwv-sj6h-6">
          <mxGeometry relative="1" as="geometry">
            <mxPoint x="405" y="100" as="targetPoint" />
          </mxGeometry>
        </mxCell>
        <mxCell id="wLlkmdTQSK7sAwv-sj6h-21" value="Start" style="ellipse;whiteSpace=wrap;html=1;" vertex="1" parent="1">
          <mxGeometry x="355" y="30" width="100" height="40" as="geometry" />
        </mxCell>
        <mxCell id="wLlkmdTQSK7sAwv-sj6h-22" value="" style="edgeStyle=orthogonalEdgeStyle;rounded=0;html=1;jettySize=auto;orthogonalLoop=1;fontSize=11;endArrow=block;endFill=0;endSize=8;strokeWidth=1;shadow=0;labelBackgroundColor=none;" edge="1" parent="1" source="wLlkmdTQSK7sAwv-sj6h-15" target="wLlkmdTQSK7sAwv-sj6h-23">
          <mxGeometry y="10" relative="1" as="geometry">
            <mxPoint as="offset" />
            <mxPoint x="850" y="360" as="sourcePoint" />
            <mxPoint x="983.0744827586207" y="375.02" as="targetPoint" />
          </mxGeometry>
        </mxCell>
        <mxCell id="wLlkmdTQSK7sAwv-sj6h-23" value="Kết thúc" style="rounded=1;whiteSpace=wrap;html=1;fontSize=12;glass=0;strokeWidth=1;shadow=0;" vertex="1" parent="1">
          <mxGeometry x="680" y="330" width="120" height="40" as="geometry" />
        </mxCell>
      </root>
    </mxGraphModel>
  </diagram>
</mxfile>
